<?xml version="1.0" encoding="UTF-8"?>
<svg xmlns="http://www.w3.org/2000/svg" id="Layer_1" data-name="Layer 1" viewBox="0 0 24 24" width="512" height="512"><path d="M19.5,3h-7.028c-.231,0-.464-.055-.671-.158l-3.156-1.578c-.345-.173-.732-.264-1.118-.264h-3.028C2.019,1,0,3.019,0,5.5v13c0,2.481,2.019,4.5,4.5,4.5h3c.276,0,.5-.224,.5-.5s-.224-.5-.5-.5h-3c-1.93,0-3.5-1.57-3.5-3.5V8H23v10.5c0,1.93-1.57,3.5-3.5,3.5h-3c-.276,0-.5,.224-.5,.5s.224,.5,.5,.5h3c2.481,0,4.5-2.019,4.5-4.5V7.5c0-2.481-2.019-4.5-4.5-4.5ZM1,5.5c0-1.93,1.57-3.5,3.5-3.5h3.028c.231,0,.464,.055,.671,.158l3.156,1.578c.345,.173,.732,.264,1.118,.264h7.028c1.76,0,3.221,1.306,3.464,3H1v-1.5Zm14.912,14.35l-2.515,2.57c-.386,.386-.891,.579-1.396,.58h-.003c-.504,0-1.008-.192-1.392-.576l-2.519-2.574c-.193-.197-.189-.514,.008-.707,.198-.191,.515-.189,.707,.008l2.515,2.57c.056,.056,.117,.103,.183,.142V12.5c0-.276,.224-.5,.5-.5s.5,.224,.5,.5v9.362c.066-.04,.129-.088,.187-.145l2.511-2.566c.193-.197,.51-.199,.707-.008,.197,.193,.201,.51,.008,.707Z"/></svg>
