<?xml version="1.0" encoding="UTF-8"?>
<svg xmlns="http://www.w3.org/2000/svg" id="Layer_1" data-name="Layer 1" viewBox="0 0 24 24" width="512" height="512"><path d="m24,2.626c0-.701-.273-1.361-.77-1.857-1.024-1.025-2.691-1.023-3.714,0l-11.29,11.291s-.004,0-.006.001l-3.941,1.239c-1.266.398-2.241,1.449-2.544,2.742L.014,23.386c-.04.168.011.346.133.468.095.095.43.142.468.133l7.344-1.722c1.292-.303,2.343-1.278,2.741-2.545l1.239-3.941s0-.003.001-.004l11.291-11.291c.496-.496.77-1.156.77-1.857Zm-14.254,16.794c-.294.932-1.066,1.649-2.017,1.872l-5.635,1.321,3.759-3.759c.195-.195.195-.512,0-.707s-.512-.195-.707,0l-3.759,3.759,1.321-5.635c.224-.951.94-1.724,1.872-2.016l3.676-1.155,2.646,2.646-1.156,3.675ZM22.523,3.776l-11.088,11.088-2.3-2.3L20.224,1.476c.635-.635,1.665-.633,2.3,0,.308.308.477.716.477,1.15s-.169.843-.477,1.15Z"/></svg>
